PathFileType	4	(X/Y/Z)	c:/Users/goper/Files/vsCode/490R/osim_files/A06/A06_Slow_02.trc
DataRate	CameraRate	NumFrames	NumMarkers	Units                	OrigDataRate	OrigDataStartFrame	OrigNumFrames
120.00	120.00	7	36	mm	120.0	866	1154
                Frame#	Time	LPSIS			LASIS			LTH1			LTH2			LTH3			LTH4			LLFE			LMFE			LSH1			LSH2			LSH3			LSH4			LLMAL			LMMAL			LCAL			LMTP5			LTOE			LMTP1			RPSIS			RASIS			RTH1			RTH2			RTH3			RTH4			RLFE			RMFE			RSH1			RSH2			RSH3			RSH4			RLMAL			RMMAL			RCAL			RMTP1			RTOE			RMTP5		
		X1	Y1	Z1	X2	Y2	Z2	X3	Y3	Z3	X4	Y4	Z4	X5	Y5	Z5	X6	Y6	Z6	X7	Y7	Z7	X8	Y8	Z8	X9	Y9	Z9	X10	Y10	Z10	X11	Y11	Z11	X12	Y12	Z12	X13	Y13	Z13	X14	Y14	Z14	X15	Y15	Z15	X16	Y16	Z16	X17	Y17	Z17	X18	Y18	Z18	X19	Y19	Z19	X20	Y20	Z20	X21	Y21	Z21	X22	Y22	Z22	X23	Y23	Z23	X24	Y24	Z24	X25	Y25	Z25	X26	Y26	Z26	X27	Y27	Z27	X28	Y28	Z28	X29	Y29	Z29	X30	Y30	Z30	X31	Y31	Z31	X32	Y32	Z32	X33	Y33	Z33	X34	Y34	Z34	X35	Y35	Z35	X36	Y36	Z36

866	7.20833	-3061.50415	998.00055	338.95636	-3240.65186	952.21722	420.34491	-3284.95093	602.95398	451.50510	-3305.46094	567.73309	443.34717	-3342.38574	627.95929	439.95337	-3355.69067	589.02246	438.44342	-3354.43115	509.69498	427.05035	-3352.64819	506.47260	316.39276	-3272.71509	431.65295	439.66589	-3267.64526	387.59204	444.56461	-3331.27393	416.77625	433.44708	-3319.35840	376.62033	437.08145	-3199.11035	139.52007	397.52536	-3229.06250	146.37492	317.81799	-3135.07251	145.27779	339.68091	-3295.33423	62.73985	423.90808	-3343.65308	74.43903	375.30377	-3323.44751	70.96529	334.30200	-3062.16382	1011.21527	209.94011	-3240.37451	970.84277	161.29674	-3108.32300	598.70862	134.74541	-3104.27905	553.61523	133.32626	-3166.09204	592.09583	141.43893	-3159.92627	549.39307	139.72437	-3120.89331	438.84055	163.69595	-3123.70288	442.55978	252.70187	-3087.87354	285.48651	183.96098	-3084.50903	238.06573	187.78944	-3148.35620	278.09149	194.60925	-3137.09106	230.92488	193.42336	-3072.58325	103.55872	187.30280	-3086.23047	107.95277	269.55634	-3015.57007	84.66218	234.82657	-3216.30615	58.34197	262.43857	-3231.61084	68.68755	222.71356	-3204.25830	53.67532	175.23236
867	7.21667	-3069.46655	997.88074	339.23593	-3248.03320	951.91058	420.50912	-3294.15771	603.56622	452.99002	-3314.68481	568.31732	444.93442	-3351.21069	628.83673	441.60440	-3364.93896	589.95392	440.28708	-3364.75488	510.85245	428.72168	-3363.14819	507.32782	318.40359	-3286.21924	429.07675	441.19623	-3279.25537	384.16641	443.95593	-3344.91602	417.97610	437.88235	-3334.69775	376.58499	438.49619	-3228.18823	133.77179	399.26923	-3257.52173	141.94745	319.51477	-3167.67188	137.04820	341.97672	-3327.34937	61.84179	426.06009	-3375.38306	75.90669	377.63910	-3354.01709	69.75521	336.87729	-3070.13452	1011.28436	210.19916	-3248.43091	970.18909	161.68231	-3110.45728	596.33514	134.50940	-3111.16650	553.23444	133.60973	-3171.39355	591.94434	141.74435	-3164.72705	549.09454	140.00253	-3124.60352	438.96066	163.92009	-3127.05200	442.85956	252.68869	-3090.70361	285.72653	183.96355	-3086.56079	238.59213	187.85919	-3150.92993	278.08777	194.49959	-3139.31616	230.98685	193.33026	-3072.77637	103.72812	187.33339	-3086.44873	108.02205	269.56519	-3014.93994	85.12713	234.80838	-3216.43262	58.19346	262.45126	-3231.73560	68.48650	222.78339	-3204.44922	53.66430	175.24239
868	7.22500	-3077.32251	997.75970	339.73959	-3256.20801	951.49994	420.94757	-3302.97534	603.77521	454.38580	-3323.53979	568.56213	446.33749	-3359.60352	629.19891	443.31476	-3373.67993	590.39252	441.92957	-3374.34058	511.53650	430.22443	-3373.13965	507.92780	320.38474	-3299.65845	426.29321	442.85532	-3294.46118	380.73599	444.97672	-3358.92944	418.80466	435.40128	-3350.46558	376.30374	440.23544	-3256.91113	128.49242	401.20557	-3285.04810	137.54433	322.34915	-3196.51221	128.67268	343.76968	-3360.22510	61.74274	428.57010	-3406.80225	77.86523	379.99380	-3388.68604	71.94497	340.30130	-3078.53589	1011.09576	210.59897	-3256.60327	969.55542	162.08221	-3115.90234	596.65411	134.77232	-3115.95801	553.51892	133.93120	-3176.65161	591.67950	142.01677	-3169.65796	548.90710	140.22012	-3128.36011	439.04285	164.09456	-3130.86890	442.92355	252.94464	-3092.80786	286.18121	184.01337	-3088.18140	239.02054	187.91501	-3153.12939	277.97192	194.63690	-3141.08862	230.99959	193.40379	-3072.94287	103.87988	187.34100	-3086.69458	108.16827	269.61737	-3012.95605	86.64993	234.66772	-3217.10303	58.55187	262.65054	-3231.88672	68.28446	222.82199	-3204.61523	53.63760	175.32600
869	7.23333	-3085.53979	997.52484	340.15915	-3264.66675	951.00867	421.42477	-3311.18335	603.66992	455.78610	-3331.65747	568.40265	447.71771	-3367.70630	629.17853	444.99591	-3381.96851	590.40454	443.59995	-3383.41626	511.81958	431.81253	-3382.51855	508.07562	322.23770	-3313.09790	423.27078	444.61752	-3310.24512	377.73788	446.74954	-3372.37256	418.92429	437.13333	-3366.35596	376.16818	442.01910	-3285.88965	123.73514	403.41220	-3313.43579	134.17743	324.49936	-3225.15723	119.83246	345.72983	-3392.30786	62.14620	430.94495	-3438.02783	80.51353	382.31183	-3420.25171	73.47904	341.70370	-3086.48120	1010.99280	211.04269	-3264.79956	968.83087	162.52098	0.00000	0.00000	0.00000	-3121.35913	553.64062	134.16457	-3182.96191	591.74762	142.30504	-3174.51440	548.51373	140.51598	-3132.19946	439.18079	164.28549	-3134.61206	442.93317	253.15932	-3094.45703	286.63266	184.18314	-3090.13647	239.49754	188.09869	-3155.40283	277.88004	194.74199	-3142.74658	230.92763	193.50351	-3072.70435	104.32690	186.71373	-3087.02271	108.25299	269.63309	-3013.86743	86.20968	235.22748	-3217.31445	58.51884	262.67493	-3232.03369	68.10300	222.84628	-3204.71216	53.57015	175.35190
870	7.24167	-3093.94287	997.06885	340.62848	-3273.26538	950.40643	422.00769	-3317.95972	603.60602	456.19925	-3339.35791	567.81995	449.00000	-3375.13086	629.43591	446.73190	-3389.75732	589.99268	445.20425	-3392.21460	511.85208	433.15714	-3391.61035	507.91193	323.96689	-3325.72607	420.34436	446.17383	-3326.63037	375.26257	449.44965	-3386.03247	417.97205	440.30292	-3381.85352	375.99643	443.71945	-3314.96338	119.63445	405.90045	-3341.73389	131.56985	326.82056	-3254.15747	112.64053	348.34232	-3423.33496	63.21490	432.94165	-3468.83936	83.92792	384.60522	-3450.04395	76.16810	343.44504	-3095.01196	1010.75659	211.52806	-3272.95142	968.10175	162.99667	-3126.82983	597.13190	135.37628	-3127.28833	553.51941	134.45117	-3188.14404	591.37561	142.69746	-3179.44702	548.26202	140.78177	-3135.97144	439.18384	164.49190	-3138.80078	442.83508	253.44708	-3096.91064	287.10672	184.35658	-3091.95435	239.97424	188.07066	-3157.47729	277.64026	194.91518	-3144.46973	230.89342	193.64497	-3072.90527	104.50802	186.73946	-3086.91333	108.19431	269.57303	-3013.98413	86.45061	235.23518	-3217.47534	58.47837	262.67673	-3232.16138	67.92354	222.88495	-3204.89844	53.58064	175.41617
871	7.25000	-3102.62964	996.39124	341.09924	-3281.74341	949.75421	422.49759	-3324.09375	602.77917	457.91650	-3349.57471	567.02081	451.86465	-3382.52124	628.75128	448.23868	-3397.27832	589.26422	446.59686	-3400.49463	511.53763	434.55734	-3400.07031	507.34290	325.59717	-3338.88989	417.16284	448.11093	-3342.29102	372.33478	451.44427	-3399.10889	418.09381	441.85059	-3397.28613	375.91595	445.40137	-3342.92773	116.22269	408.26520	-3369.79346	129.63551	329.31198	-3282.97241	106.51836	351.10028	-3455.03882	65.40788	435.28101	-3499.28149	88.21841	386.74774	-3480.64038	79.43542	345.60895	-3103.25171	1010.51532	212.15732	-3281.10156	967.30310	163.49869	-3132.30151	597.28870	135.70796	-3128.98242	554.78680	134.52385	-3193.38135	591.04236	143.11954	-3184.83984	547.76251	141.05551	-3139.86792	439.23117	164.70428	-3142.35181	442.90262	253.53624	-3099.13843	287.47202	184.42349	-3093.87402	240.48042	188.24031	-3159.83643	277.54831	195.03055	-3146.40186	230.93425	193.74606	-3073.59497	104.47652	187.32599	-3086.51245	107.61950	268.57034	-3014.11816	86.70763	235.23032	-3216.95361	57.60190	262.26456	-3232.32959	67.76772	222.91539	-3205.03687	53.55428	175.40456
872	7.25833	-3110.79932	995.86871	341.87720	-3290.53149	948.90375	423.15686	-3331.63232	601.58221	458.74850	-3353.98535	565.74335	451.08945	-3389.69287	627.42035	449.56894	-3403.05591	587.80042	447.69794	-3408.34521	510.88623	435.82535	-3408.09644	506.29437	327.03531	-3351.84204	413.86884	450.15912	-3357.69263	369.45511	453.57797	-3411.82544	418.17477	443.37399	-3412.26611	375.85281	447.05667	-3371.66772	113.47709	411.22504	-3397.28564	128.31630	331.95581	-3311.91260	100.25459	354.82556	-3486.45361	68.50707	437.42480	-3529.02295	93.43449	388.60370	-3510.56982	83.51566	347.63455	-3111.53784	1010.08691	212.79329	-3289.31934	966.51062	164.01324	-3137.79395	597.37744	136.06877	-3133.94531	555.06927	134.69669	-3198.60986	590.62653	143.58212	-3189.76929	547.38782	141.34712	-3143.74438	439.29379	164.97122	-3146.25732	442.93484	253.80319	-3101.75903	287.97284	184.57378	-3095.89087	240.85922	188.29170	-3162.26294	277.49454	195.18759	-3148.30859	230.96500	193.84627	-3073.38062	104.95302	186.72029	-3087.03809	108.33261	269.11969	-3014.26221	86.93782	235.20276	-3217.89673	58.39375	262.61771	-3232.96191	67.12586	223.32642	-3205.14014	53.49844	175.40097
